<svg xmlns="http://www.w3.org/2000/svg" viewBox="0 0 51 58"><defs><style>.cls-1,.cls-3{fill:#fff;}.cls-1,.cls-2,.cls-3,.cls-4{stroke:#000;stroke-linecap:round;stroke-linejoin:round;}.cls-2,.cls-4{fill:none;}.cls-2{stroke-width:3px;}.cls-3{stroke-width:2px;}</style></defs><g id="Layer_3" data-name="Layer 3"><polyline class="cls-1" points="7.5 35 7.5 30 11.48 35"/><polyline class="cls-1" points="10.5 35 10.5 30 14.48 35"/><path class="cls-2" d="M21,19H32.5a4,4,0,0,1,4,4V49a4,4,0,0,1-4,4H9.5a4,4,0,0,1-4-4V36"/><path class="cls-2" d="M24,32c0,2.21-2.13,4-4.77,4H5.5"/><ellipse class="cls-1" cx="14.26" cy="20.51" rx="4.51" ry="7.02"/><line class="cls-1" x1="10.07" y1="22.63" x2="18.45" y2="22.63"/><path d="M11.21,22.48a6,6,0,0,1-.29-1.84c0-2.27,1.19-4.11,2.65-4.11s2.64,1.84,2.64,4.11a6,6,0,0,1-.29,1.84Z"/><ellipse class="cls-1" cx="22.49" cy="20.51" rx="4.51" ry="7.02"/><line class="cls-1" x1="18.3" y1="22.63" x2="26.68" y2="22.63"/><path d="M19.44,22.48a6,6,0,0,1-.29-1.84c0-2.27,1.19-4.11,2.65-4.11s2.64,1.84,2.64,4.11a6,6,0,0,1-.29,1.84Z"/><polygon class="cls-3" points="43.44 7.56 29 17.5 38 24.5 43.44 7.56"/><line class="cls-1" x1="40.46" y1="5.55" x2="46.76" y2="9.48"/><polyline class="cls-1" points="42.6 3.13 43.61 7.52 46.14 3.47"/><line class="cls-1" x1="47.55" y1="6.22" x2="43.61" y2="7.52"/><line class="cls-4" x1="41.25" y1="15.75" x2="31.25" y2="15.75"/><line class="cls-4" x1="41.75" y1="14.25" x2="33.75" y2="14.25"/></g></svg>